<svg width="50" height="50" viewBox="0 0 50 50" fill="none" xmlns="http://www.w3.org/2000/svg">
<path d="M17.9166 37.5C15.5003 37.5 13.5416 39.4588 13.5416 41.875C13.5416 42.9105 14.381 43.75 15.4166 43.75H34.5832C35.6188 43.75 36.4582 42.9105 36.4582 41.875C36.4582 39.4588 34.4995 37.5 32.0832 37.5H17.9166Z" fill="white"/>
<path fill-rule="evenodd" clip-rule="evenodd" d="M37.7345 7.12188C36.8679 5.99067 35.211 5.62668 33.9592 6.53768C33.8249 6.63544 33.7016 6.74863 33.5918 6.87399C33.3632 6.69257 33.1018 6.53972 32.7906 6.44566C32.5103 6.36094 32.2181 6.32224 31.9254 6.33107C31.4029 6.34682 30.9651 6.54285 30.5763 6.77937C30.2147 6.99936 29.8075 7.31136 29.35 7.66188L18.8522 15.704C18.6285 15.8751 18.4158 16.0377 18.2501 16.2197C17.5311 17.0098 17.3472 18.1435 17.7658 19.1142L16.3721 20.1827C16.1414 20.3595 15.9313 20.5205 15.7635 20.6668C15.5838 20.8234 15.3992 21.0079 15.2506 21.2487C14.8765 21.8551 14.7789 22.5923 14.9824 23.2751C15.0632 23.5463 15.1935 23.7725 15.3262 23.9704C15.4502 24.1553 15.6112 24.3654 15.7879 24.5961L15.8225 24.6412C15.9992 24.8719 16.1602 25.082 16.3065 25.2498C16.4631 25.4294 16.6476 25.6141 16.8884 25.7627C17.4948 26.1368 18.232 26.2344 18.9148 26.0309C19.186 25.9501 19.4122 25.8198 19.6101 25.6871C19.7951 25.5631 20.0051 25.4021 20.2358 25.2254L21.7557 24.0616C22.5395 24.451 23.5097 24.3891 24.2513 23.821L29.5255 19.7805C30.1095 20.2993 30.8411 20.657 31.6497 20.7821C31.9921 21.3221 32.2688 21.9041 32.4721 22.5161C32.9078 23.8278 32.9905 25.231 32.712 26.5847C32.4334 27.9385 31.8035 29.1951 30.8854 30.2282C29.9673 31.2613 28.7934 32.0346 27.4818 32.4702C26.1701 32.9059 24.7669 32.9886 23.4131 32.7101C23.0766 32.6408 22.6505 32.4697 22.1899 32.2412C22.6113 32.1077 22.9167 31.7135 22.9167 31.248C22.9167 30.6727 22.4503 30.2063 21.875 30.2063H13.5417C12.9664 30.2063 12.5 30.6727 12.5 31.248C12.5 31.8233 12.9664 32.2897 13.5417 32.2897H13.6363C13.7931 32.5073 13.9987 32.7877 14.2305 33.0916C14.7339 33.7515 15.4183 34.5993 16.0046 35.1203C17.7814 36.6993 19.9426 37.7828 22.2709 38.2618C24.5992 38.7409 27.0125 38.5986 29.2684 37.8493C31.5243 37.1 33.5432 35.7701 35.1222 33.9933C36.7012 32.2165 37.7847 30.0553 38.2637 27.727C38.7428 25.3987 38.6005 22.9854 37.8512 20.7295C37.4846 19.6256 36.9789 18.5785 36.3499 17.6119C36.4209 17.3069 36.4583 16.9897 36.4583 16.6646C36.4583 15.9958 36.3002 15.363 36.0197 14.8025C36.1554 14.6954 36.2793 14.5941 36.3881 14.4976C36.6139 14.2973 36.8354 14.0664 37.0013 13.7648C37.3151 13.1941 37.4124 12.5303 37.277 11.8951C37.4706 11.8128 37.6528 11.7041 37.8162 11.5724C39.0217 10.601 39.1016 8.90634 38.235 7.77513L37.7345 7.12188ZM16.2466 32.2897C16.6514 32.7976 17.0665 33.2769 17.3885 33.563C18.892 34.8991 20.7206 35.8159 22.6907 36.2212C24.6608 36.6266 26.7029 36.5062 28.6117 35.8722C30.5205 35.2382 32.2288 34.1129 33.5649 32.6094C34.901 31.1059 35.8178 29.2773 36.2231 27.3072C36.6285 25.3371 36.5081 23.295 35.8741 21.3862C35.6796 20.8006 35.4389 20.234 35.1552 19.6911C34.7899 20.037 34.3619 20.3175 33.8899 20.5137C34.1082 20.9465 34.2954 21.3962 34.4492 21.8594C35.0002 23.5181 35.1048 25.2927 34.7525 27.0046C34.4003 28.7165 33.6037 30.3056 32.4426 31.6121C31.2816 32.9186 29.7972 33.8964 28.1385 34.4473C26.4797 34.9983 24.7052 35.1029 22.9933 34.7506C21.9297 34.5318 20.6466 33.8134 19.7273 33.2405C19.2452 32.9401 18.8206 32.6522 18.5167 32.4396C18.4378 32.3843 18.3667 32.334 18.3047 32.2897H16.2466ZM17.662 21.819L18.9676 20.818L20.2977 22.5541L18.9913 23.5544C18.7308 23.754 18.5735 23.8739 18.4501 23.9566C18.3633 24.0148 18.3259 24.0317 18.3182 24.0348C18.2055 24.0679 18.084 24.0518 17.9838 23.9906C17.9772 23.9855 17.9455 23.9595 17.8768 23.8807C17.7792 23.7687 17.6585 23.612 17.4589 23.3516C17.2593 23.0911 17.1394 22.9338 17.0567 22.8104C16.9985 22.7236 16.9816 22.6863 16.9785 22.6785C16.9454 22.5658 16.9615 22.4443 17.0227 22.3441C17.0278 22.3374 17.0538 22.3057 17.1326 22.2371C17.2446 22.1394 17.4015 22.0186 17.662 21.819ZM35.1851 8.22215C35.4423 8.03494 35.8396 8.07412 36.0807 8.38884L36.5812 9.04209C36.8223 9.35681 36.7567 9.75062 36.5089 9.95026C36.4652 9.98551 36.431 9.99292 36.4171 9.99436L36.4097 9.98544L35.1253 8.30882L35.1216 8.30372C35.1248 8.29065 35.1393 8.25544 35.1851 8.22215ZM30.2083 16.6646C30.2083 15.514 31.141 14.5813 32.2916 14.5813C32.9054 14.5813 33.4561 14.8454 33.8388 15.2695C34.1729 15.6396 34.3749 16.1273 34.3749 16.6646C34.3749 16.939 34.3225 17.1985 34.2279 17.4356C33.9207 18.2063 33.1681 18.748 32.2916 18.748C31.5588 18.748 30.9136 18.3705 30.5408 17.7944C30.3305 17.4695 30.2083 17.0829 30.2083 16.6646Z" fill="white"/>
</svg>
